<?xml version="1.0" encoding="utf-8"?>
<!-- Generator: Adobe Illustrator 26.1.0, SVG Export Plug-In . SVG Version: 6.00 Build 0)  -->
<svg version="1.1"
	 id="svg909" inkscape:version="1.0.1 (c497b03c, 2020-09-10)" sodipodi:docname="logo.svg" xmlns:cc="http://creativecommons.org/ns#" xmlns:dc="http://purl.org/dc/elements/1.1/" xmlns:inkscape="http://www.inkscape.org/namespaces/inkscape" xmlns:rdf="http://www.w3.org/1999/02/22-rdf-syntax-ns#" xmlns:sodipodi="http://sodipodi.sourceforge.net/DTD/sodipodi-0.dtd" xmlns:svg="http://www.w3.org/2000/svg"
	 xmlns="http://www.w3.org/2000/svg" xmlns:xlink="http://www.w3.org/1999/xlink" x="0px" y="0px" width="840.6px" height="273.6px"
	 viewBox="0 0 840.6 273.6" style="enable-background:new 0 0 840.6 273.6;" xml:space="preserve">
<style type="text/css">
	.st0{fill:#FF5000;}
	.st1{fill:#25206B;}
</style>
<g id="logo">
	<path id="path836" class="st0" d="M68.3,94.4h-0.6c-4.3-7.6-13.9-12.9-26.3-12.9C18,81.5,0,99.3,0,124.8s17.1,43.3,40.4,43.3
		c12.4,0,22.5-5.4,27.3-13.9h0.6l4,11.3h15.8V84H72.3L68.3,94.4z M42.9,148.6c-12.8,0-22.1-9.9-22.1-24.1c0-14,9.3-23.8,22.1-23.8
		c12.9,0,22.2,9.8,22.2,23.8C65.1,138.7,55.8,148.6,42.9,148.6z"/>
	<path id="path838" class="st0" d="M275.5,136c0,7.2-5.2,12.6-12.3,12.6c-7.1,0-12.4-5.4-12.4-12.6V84h-22.1v51.4
		c0,19.5,14.7,32.8,34.7,32.8c19.8,0,34.2-13.1,34.2-32.1V84h-22.1L275.5,136L275.5,136z"/>
	<path id="path840" class="st0" d="M309.4,111.8v53.9h22.1V115c0-9.3,4.9-12.9,12.3-12.9c1.9,0,6.8,0.2,8.4,0.6V83.6
		c-1.9-0.6-8.7-1.1-12.2-1.1C320.2,82.5,309.4,92.4,309.4,111.8z"/>
	<path id="path842" class="st0" d="M493,81.5c-25.4,0-43.5,18-43.5,43.3c0,25,18,43.3,43.8,43.3c13.9,0,25-4.9,33.4-15.8L514,139
		c-5.4,6.8-11.3,9.6-20.5,9.6c-11.3,0-18.7-6.1-21.1-16.9h60c0.5-2,0.6-4.7,0.6-6.9C533,99.6,517,81.5,493,81.5z M472.4,117.8
		c2.2-10.6,9.5-17,20.2-17c10.2,0,17.3,6.8,18.9,17H472.4z"/>
	<path id="path844" class="st0" d="M582.7,81.5c-25.4,0-43.6,18.1-43.6,43.3c0,25,18.3,43.3,43.6,43.3c25.4,0,43.8-18.3,43.8-43.3
		C626.5,99.6,608,81.5,582.7,81.5z M582.7,148.6c-12.8,0-21.6-9.9-21.6-24.1c0-14,8.8-23.8,21.6-23.8c12.9,0,21.6,9.8,21.6,23.8
		C604.2,138.7,595.6,148.6,582.7,148.6z"/>
	<path id="path846" class="st0" d="M800.6,81.5c-25.4,0-43.5,18-43.5,43.3c0,25,18,43.3,43.8,43.3c13.9,0,25-4.9,33.4-15.8
		L821.6,139c-5.4,6.8-11.3,9.6-20.5,9.6c-11.3,0-18.7-6.1-21.1-16.9h60c0.5-2,0.6-4.7,0.6-6.9C840.7,99.6,824.6,81.5,800.6,81.5z
		 M780,117.8c2.2-10.6,9.5-17,20.2-17c10.2,0,17.3,6.8,18.9,17H780z"/>
	<rect id="rect848" x="727.1" y="60.2" class="st0" width="22.1" height="105.5"/>
	<path id="path850" class="st0" d="M138.7,119.2l-10.2-5.2c-6.8-3.3-9.1-4.9-9.1-8.5c0-4.1,3.3-6.5,7.7-6.5c4.9,0,11.4,3.1,15,6.3
		L153,92.5c-5.5-5.2-15.3-11-26.4-11c-15.6,0-27.4,11-27.4,24.1c0,14.5,8.5,19.8,17.6,24.3l8.7,4.3c6.8,3.2,9,5.4,9,8.7
		c0,4.7-3.5,7.4-8.7,7.4c-6.3,0-12.7-5.7-15.3-9.5l-14,10.9c4.5,7.9,15,16.6,29.1,16.6c19.1,0,30.4-10.4,30.4-25.2
		C156,129.7,148,123.9,138.7,119.2z"/>
	<path id="path852" class="st0" d="M202.9,119.2l-10.2-5.2c-6.8-3.3-9.1-4.9-9.1-8.5c0-4.1,3.3-6.5,7.7-6.5c4.9,0,11.4,3.1,15,6.3
		l10.9-12.8c-5.5-5.2-15.3-11-26.4-11c-15.6,0-27.4,11-27.4,24.1c0,14.5,8.5,19.8,17.6,24.3l8.7,4.3c6.8,3.2,9,5.4,9,8.7
		c0,4.7-3.5,7.4-8.7,7.4c-6.3,0-12.7-5.7-15.3-9.5l-14,10.9c4.5,7.9,15,16.6,29.1,16.6c19.1,0,30.4-10.4,30.4-25.2
		C220.2,129.7,212.2,123.9,202.9,119.2z"/>
	<path id="path854" class="st0" d="M679.7,81.5c-12.3,0-20.3,7.1-24.9,13.2h-0.5L648.9,84h-14.1v108.3h21.4v-26.5
		c0-4.4-0.2-6-0.3-7.1h0.5c4.4,5.5,13.6,9.4,22.4,9.4c23.2,0,40.3-17.8,40.3-43.3C719.1,99.3,702.5,81.5,679.7,81.5z M677.2,150.1
		c-11,0-20-11-20-24.5s8.9-24.5,20-24.5c11,0,20,11,20,24.5C697.2,139.2,688.3,150.1,677.2,150.1z"/>
	<path id="path856" class="st0" d="M404.1,81.5c-12.3,0-20.3,7.1-24.9,13.2h-0.5L373.4,84h-14.1v108.3h21.4v-26.5
		c0-4.4-0.2-6-0.3-7.1h0.5c4.4,5.5,13.6,9.4,22.4,9.4c23.2,0,40.3-17.8,40.3-43.3C443.5,99.3,427,81.5,404.1,81.5z M401.7,150.1
		c-11,0-20-11-20-24.5s8.9-24.5,20-24.5c11,0,20,11,20,24.5C421.6,139.2,412.7,150.1,401.7,150.1z"/>
	<g id="g866">
		<path id="path858" class="st0" d="M730.2,214.3c-1.4,0-2.6,1.2-2.6,2.6c0,1.5,1.2,2.6,2.6,2.6c1.4,0,2.6-1.2,2.6-2.6
			S731.6,214.3,730.2,214.3z"/>
		<path id="path860" class="st0" d="M753.3,216.3c-5.8,0-10-4.5-10-10.5c0-6.1,4.2-10.5,10-10.5c3.7,0,6.6,1.8,8.4,4.4l2.6-2.6
			c-2.5-3.5-6.4-5.5-11-5.5c-8.2,0-14.3,6.1-14.3,14.3s5.9,14.3,14.3,14.3c4.9,0,8.9-2.5,11.2-6l-2.6-2.5
			C760.1,214.3,757.1,216.3,753.3,216.3z"/>
		<path id="path862" class="st0" d="M781.1,191.5c-8.1,0-14.2,6.1-14.2,14.3s6,14.3,14.2,14.3s14.2-6.1,14.2-14.3
			C795.3,197.5,789.2,191.5,781.1,191.5z M781.1,216.3c-5.8,0-9.9-4.5-9.9-10.5c0-6.1,4.1-10.5,9.9-10.5c5.8,0,10,4.5,10,10.5
			C791,211.8,786.8,216.3,781.1,216.3z"/>
		<path id="path864" class="st0" d="M827.2,191.5c-3.7,0-6.6,1.7-8.2,4.5c-1.6-2.8-4.5-4.5-8.3-4.5c-5.9,0-10.3,4.1-10.3,9.9v17.8
			h4.2v-17.8c0-3.6,2.5-6.2,6.1-6.2s6.1,2.6,6.1,6.2v17.8h4.2v-17.8c0-3.6,2.5-6.2,6-6.2c3.6,0,6.1,2.6,6.1,6.2v17.8h4.2v-17.8
			C837.4,195.5,833.3,191.5,827.2,191.5z"/>
	</g>
	<path id="path868" class="st0" d="M741.6,25.2h29.2v5.9h-24c5.5,8.2,15.7,14.3,25.6,14.3h30.5v5.9h-24c5.6,8.3,15.7,12.4,32.3,12.4
		h26.3V28.3c0-15.6-12.7-28.3-28.3-28.3h-99.1C709.9,0,717.7,25.2,741.6,25.2z"/>
	<g id="g906">
		<path id="path870" class="st1" d="M383.5,230.7h-11.2l-5.5,31.8h-6.2l5.5-31.8H355l0.9-5.2h28.5L383.5,230.7z"/>
		<path id="path872" class="st1" d="M378.5,248.6c0.3-2.7,1.1-5.1,2.4-7.3s3-3.9,5-5.1s4.3-1.8,6.8-1.7c2.4,0,4.4,0.7,6.1,1.9
			s3,2.9,3.7,5s1.1,4.5,0.8,7.1c-0.3,2.9-1.1,5.5-2.4,7.7s-3,3.9-5,5.1s-4.3,1.8-6.8,1.7c-2.3,0-4.4-0.7-6.1-1.9s-2.9-2.9-3.7-5
			c-0.8-2.1-1.1-4.4-0.9-7L378.5,248.6z M384.4,252.1c0.1,1.8,0.6,3.2,1.4,4.3c0.9,1.1,2,1.6,3.6,1.7c2.1,0.1,3.8-0.7,5.2-2.4
			s2.3-3.9,2.6-6.7l0.2-2.5c0-2.2-0.4-3.9-1.3-5.1s-2.1-1.9-3.8-2c-2.6-0.1-4.6,1.2-6.1,3.8c-0.9,1.6-1.5,3.4-1.7,5.4
			C384.3,250.1,384.3,251.2,384.4,252.1z"/>
		<path id="path874" class="st1" d="M423,259.8c-2.1,2.2-4.7,3.3-7.8,3.2c-1.8,0-3.3-0.5-4.4-1.3c-1.2-0.8-2-2-2.5-3.5
			s-0.6-3.3-0.4-5.3l3-17.8h6l-3,17.8c-0.1,0.6-0.1,1.2,0,1.8c0.2,2.1,1.2,3.2,3.2,3.3c2.7,0.1,4.8-1,6.4-3.2L427,235h6l-4.7,27.5
			h-5.6L423,259.8z"/>
		<path id="path876" class="st1" d="M445.3,235l-5.1,29.9c-0.4,2.8-1.4,5-2.9,6.5c-1.6,1.5-3.7,2.3-6.2,2.2c-1.1,0-2.2-0.2-3.4-0.5
			l0.5-4.9c0.8,0.2,1.5,0.3,2.1,0.3c2.1,0,3.4-1.3,3.9-3.8l5.1-29.8L445.3,235L445.3,235z M440,228c0-1,0.3-1.8,0.9-2.4s1.4-1,2.4-1
			s1.8,0.3,2.5,0.9c0.7,0.6,1,1.4,1,2.3c0,1-0.3,1.8-1,2.4s-1.4,1-2.4,1s-1.8-0.3-2.5-0.9C440.4,229.6,440,228.9,440,228z"/>
		<path id="path878" class="st1" d="M448.6,248.6c0.3-2.7,1.1-5.1,2.4-7.3s3-3.9,5-5.1s4.3-1.8,6.8-1.7c2.4,0,4.4,0.7,6.1,1.9
			s3,2.9,3.7,5s1.1,4.5,0.8,7.1c-0.3,2.9-1.1,5.5-2.4,7.7s-3,3.9-5,5.1s-4.3,1.8-6.8,1.7c-2.3,0-4.4-0.7-6.1-1.9s-3-2.9-3.7-5
			c-0.8-2.1-1.1-4.4-0.9-7L448.6,248.6z M454.5,252.1c0.1,1.8,0.6,3.2,1.4,4.3c0.9,1.1,2,1.6,3.6,1.7c2.1,0.1,3.8-0.7,5.2-2.4
			s2.3-3.9,2.6-6.7l0.2-2.5c0-2.2-0.4-3.9-1.3-5.1s-2.1-1.9-3.8-2c-2.6-0.1-4.6,1.2-6.1,3.8c-0.9,1.6-1.5,3.4-1.7,5.4
			C454.5,250.1,454.5,251.2,454.5,252.1z"/>
		<path id="path880" class="st1" d="M493.1,259.8c-2.1,2.2-4.7,3.3-7.8,3.2c-1.8,0-3.3-0.5-4.4-1.3c-1.2-0.8-2-2-2.5-3.5
			s-0.6-3.3-0.4-5.3l3-17.8h6l-3,17.8c-0.1,0.6-0.1,1.2,0,1.8c0.2,2.1,1.2,3.2,3.2,3.3c2.7,0.1,4.8-1,6.4-3.2L497,235h6l-4.7,27.5
			h-5.6L493.1,259.8z"/>
		<path id="path882" class="st1" d="M522.4,240.6c-0.8-0.2-1.6-0.3-2.4-0.3c-2.6-0.1-4.7,1-6.3,3.3l-3.3,18.8h-6l4.7-27.5h5.7
			l-0.6,3.1c1.9-2.5,4-3.7,6.5-3.7c0.6,0,1.3,0.1,2.3,0.4L522.4,240.6z"/>
		<path id="path884" class="st1" d="M538.8,254.9c0.3-1.7-0.8-2.8-3.3-3.5s-4.1-1.2-5-1.6c-3.5-1.5-5.2-3.8-5.1-6.8
			c0.1-2.5,1.2-4.5,3.4-6.1s4.7-2.4,7.8-2.4c2.9,0,5.3,0.9,7.1,2.5s2.7,3.7,2.7,6.3h-6c0-1.3-0.3-2.3-1-3s-1.7-1.1-3-1.1
			s-2.5,0.3-3.4,1c-1,0.7-1.5,1.5-1.7,2.6c-0.2,1.5,0.8,2.6,3.2,3.2c2.4,0.6,4.2,1.2,5.3,1.7c3.4,1.5,5,3.8,4.8,6.9
			c-0.1,1.7-0.7,3.3-1.7,4.6c-1.1,1.3-2.5,2.3-4.3,3s-3.7,1-5.7,1c-3,0-5.5-0.9-7.5-2.6s-2.9-3.9-2.9-6.6h5.8c0,1.5,0.5,2.6,1.3,3.4
			s2,1.2,3.5,1.2s2.7-0.3,3.7-0.9S538.7,255.9,538.8,254.9z"/>
		<path id="path886" class="st1" d="M567.9,262.5h-6l6.8-39h6L567.9,262.5z"/>
		<path id="path888" class="st1" d="M591,262.5c-0.2-0.7-0.3-1.5-0.3-2.6c-2.3,2.1-4.7,3.1-7.3,3.1c-2.4,0-4.4-0.8-5.9-2.3
			c-1.6-1.5-2.3-3.4-2.2-5.7c0.1-2.9,1.4-5.2,3.8-6.8c2.4-1.7,5.6-2.5,9.5-2.5l3.9,0.1l0.4-1.9c0.1-0.7,0.1-1.3,0-1.9
			c-0.3-1.8-1.5-2.8-3.6-2.8c-1.3,0-2.4,0.3-3.4,1s-1.6,1.6-1.8,2.8l-6,0.1c0.1-1.7,0.7-3.2,1.8-4.5s2.5-2.3,4.3-3s3.7-1,5.7-1
			c3,0.1,5.3,1,7,2.7s2.4,4,2.1,6.7l-2.1,12.9l-0.2,2.3c-0.1,1,0.1,2,0.4,2.9v0.5H591V262.5z M584.8,258.1c1.3,0,2.4-0.3,3.5-0.9
			s2-1.4,2.8-2.4l0.9-5.2h-2.9c-2.3,0-4.1,0.4-5.4,1.3c-1.4,0.9-2.1,2-2.3,3.5c-0.1,1.1,0.1,2,0.7,2.7S583.6,258,584.8,258.1z
			 M594,231.2h-4.6l-5.5-7.7h6.4L594,231.2z"/>
		<path id="path890" class="st1" d="M640.7,248.8c-0.3,2.7-1.1,5.2-2.2,7.5c-1.1,2.2-2.6,3.9-4.3,5.1c-1.7,1.1-3.7,1.7-5.8,1.6
			c-2.9-0.1-5.1-1.1-6.8-3l-2.5,13.1h-6l6.6-38h5.5l-0.5,2.8c2.1-2.3,4.6-3.4,7.5-3.3c1.7,0,3.3,0.5,4.5,1.3c1.3,0.9,2.3,2.1,3,3.8
			s1.1,3.5,1.1,5.5C640.9,246.2,640.9,247.4,640.7,248.8z M634.8,248.3l0.1-1.9c0.1-2.2-0.3-3.9-1.1-5.1c-0.8-1.2-1.9-1.8-3.5-1.9
			c-2.3-0.1-4.2,1-5.9,3.1l-2.1,12.3c0.8,2,2.3,3.1,4.6,3.2c2,0.1,3.7-0.7,5-2.3C633.4,254.1,634.3,251.7,634.8,248.3z"/>
		<path id="path892" class="st1" d="M645.1,248.6c0.3-2.7,1.1-5.1,2.4-7.3s3-3.9,5-5.1s4.3-1.8,6.8-1.7c2.4,0,4.4,0.7,6.1,1.9
			c1.7,1.2,3,2.9,3.7,5s1.1,4.5,0.8,7.1c-0.3,2.9-1.1,5.5-2.4,7.7c-1.3,2.2-3,3.9-5,5.1s-4.3,1.8-6.8,1.7c-2.3,0-4.4-0.7-6.1-1.9
			s-3-2.9-3.7-5c-0.8-2.1-1.1-4.4-0.9-7L645.1,248.6z M651,252.1c0.1,1.8,0.6,3.2,1.4,4.3c0.9,1.1,2,1.6,3.6,1.7
			c2.1,0.1,3.8-0.7,5.2-2.4s2.3-3.9,2.6-6.7l0.2-2.5c0-2.2-0.4-3.9-1.3-5.1s-2.1-1.9-3.8-2c-2.6-0.1-4.6,1.2-6.1,3.8
			c-0.9,1.6-1.5,3.4-1.7,5.4C651,250.1,650.9,251.2,651,252.1z"/>
		<path id="path894" class="st1" d="M689.6,259.8c-2.1,2.2-4.7,3.3-7.8,3.2c-1.8,0-3.3-0.5-4.4-1.3c-1.2-0.8-2-2-2.5-3.5
			s-0.6-3.3-0.4-5.3l3-17.8h6l-3,17.8c-0.1,0.6-0.1,1.2,0,1.8c0.2,2.1,1.2,3.2,3.2,3.3c2.7,0.1,4.8-1,6.4-3.2l3.5-19.8h6l-4.7,27.5
			h-5.6L689.6,259.8z"/>
		<path id="path896" class="st1" d="M718.9,240.6c-0.8-0.2-1.6-0.3-2.4-0.3c-2.6-0.1-4.7,1-6.3,3.3l-3.3,18.8h-6l4.7-27.5h5.7
			l-0.6,3.1c1.9-2.5,4-3.7,6.5-3.7c0.6,0,1.3,0.1,2.3,0.4L718.9,240.6z"/>
		<path id="path898" class="st1" d="M742.5,254.6l8.7-19.6h6.4l-13.5,27.5h-5.2l-5-27.5h6L742.5,254.6z"/>
		<path id="path900" class="st1" d="M758,248.6c0.3-2.7,1.1-5.1,2.4-7.3s3-3.9,5-5.1s4.3-1.8,6.8-1.7c2.4,0,4.4,0.7,6.1,1.9
			c1.7,1.2,3,2.9,3.7,5s1.1,4.5,0.8,7.1c-0.3,2.9-1.1,5.5-2.4,7.7c-1.3,2.2-3,3.9-5,5.1s-4.3,1.8-6.8,1.7c-2.3,0-4.4-0.7-6.1-1.9
			s-3-2.9-3.7-5c-0.8-2.1-1.1-4.4-0.9-7L758,248.6z M763.9,252.1c0.1,1.8,0.6,3.2,1.4,4.3c0.9,1.1,2,1.6,3.6,1.7
			c2.1,0.1,3.8-0.7,5.2-2.4s2.3-3.9,2.6-6.7l0.2-2.5c0-2.2-0.4-3.9-1.3-5.1s-2.1-1.9-3.8-2c-2.6-0.1-4.6,1.2-6.1,3.8
			c-0.9,1.6-1.5,3.4-1.7,5.4C763.9,250.1,763.8,251.2,763.9,252.1z"/>
		<path id="path902" class="st1" d="M802.5,259.8c-2.1,2.2-4.7,3.3-7.8,3.2c-1.8,0-3.3-0.5-4.4-1.3c-1.2-0.8-2-2-2.5-3.5
			s-0.6-3.3-0.4-5.3l3-17.8h6l-3,17.8c-0.1,0.6-0.1,1.2,0,1.8c0.2,2.1,1.2,3.2,3.2,3.3c2.7,0.1,4.8-1,6.4-3.2l3.5-19.8h6l-4.7,27.5
			H802L802.5,259.8z"/>
		<path id="path904" class="st1" d="M830.2,254.9c0.3-1.7-0.8-2.8-3.3-3.5s-4.1-1.2-5-1.6c-3.5-1.5-5.2-3.8-5.1-6.8
			c0.1-2.5,1.2-4.5,3.4-6.1s4.7-2.4,7.8-2.4c2.9,0,5.3,0.9,7.1,2.5s2.7,3.7,2.7,6.3h-6c0-1.3-0.3-2.3-1-3s-1.7-1.1-3-1.1
			s-2.5,0.3-3.4,1c-1,0.7-1.5,1.5-1.7,2.6c-0.2,1.5,0.8,2.6,3.2,3.2c2.4,0.6,4.2,1.2,5.3,1.7c3.4,1.5,5,3.8,4.8,6.9
			c-0.1,1.7-0.7,3.3-1.7,4.6c-1.1,1.3-2.5,2.3-4.3,3s-3.7,1-5.7,1c-3,0-5.5-0.9-7.5-2.6s-2.9-3.9-2.9-6.6h5.8c0,1.5,0.5,2.6,1.3,3.4
			s2,1.2,3.5,1.2s2.7-0.3,3.7-0.9S830,255.9,830.2,254.9z"/>
	</g>
</g>
</svg>
