<?xml version="1.0" encoding="UTF-8"?>
<svg xmlns="http://www.w3.org/2000/svg" xmlns:xlink="http://www.w3.org/1999/xlink" version="1.1" viewBox="0 0 113.3858 56.6924">
  <defs>
    <clipPath id="clippath">
      <path d="M16.7254,18.8563c0,6.5,5.2688,11.7687,11.7688,11.7687s11.7699-5.2687,11.7699-11.7687-5.2699-11.7699-11.7699-11.7699-11.7688,5.2697-11.7688,11.7699" fill="none"/>
    </clipPath>
    <radialGradient id="radial-gradient" cx="-360.8097" cy="325.1439" fx="-360.8097" fy="325.1439" r=".2309" gradientTransform="translate(24398.0589 21966.9065) scale(67.5269 -67.5269)" gradientUnits="userSpaceOnUse">
      <stop offset="0" stop-color="#b7c3e4"/>
      <stop offset=".03" stop-color="#b7c3e4"/>
      <stop offset=".041" stop-color="#afbde0"/>
      <stop offset=".1054" stop-color="#8a9fce"/>
      <stop offset=".1728" stop-color="#6b87bf"/>
      <stop offset=".243" stop-color="#5474b3"/>
      <stop offset=".3174" stop-color="#4367ab"/>
      <stop offset=".3988" stop-color="#395fa6"/>
      <stop offset=".5" stop-color="#365da5"/>
      <stop offset="1" stop-color="#2c3e6c"/>
    </radialGradient>
    <clipPath id="clippath-1">
      <path d="M44.923,18.8563c0,6.5,5.2693,11.7687,11.7693,11.7687s11.7687-5.2687,11.7687-11.7687-5.2675-11.7699-11.7687-11.7699-11.7693,5.2697-11.7693,11.7699" fill="none"/>
    </clipPath>
    <radialGradient id="radial-gradient-2" cx="-362.2005" cy="325.1452" fx="-362.2005" fy="325.1452" r=".2308" gradientTransform="translate(24520.2327 21967.0491) scale(67.5271 -67.5271)" gradientUnits="userSpaceOnUse">
      <stop offset="0" stop-color="#bcd5bd"/>
      <stop offset=".03" stop-color="#bcd5bd"/>
      <stop offset=".0759" stop-color="#a4c5a8"/>
      <stop offset=".1478" stop-color="#85b08d"/>
      <stop offset=".2234" stop-color="#6ea178"/>
      <stop offset=".3035" stop-color="#5d9569"/>
      <stop offset=".391" stop-color="#538f60"/>
      <stop offset=".5" stop-color="#508d5e"/>
      <stop offset="1" stop-color="#498152"/>
    </radialGradient>
    <clipPath id="clippath-2">
      <path d="M73.1216,18.8563c0,6.5,5.2687,11.7687,11.7688,11.7687s11.77-5.2687,11.77-11.7687-5.2699-11.7699-11.77-11.7699-11.7688,5.2697-11.7688,11.7699" fill="none"/>
    </clipPath>
    <radialGradient id="radial-gradient-3" cx="-363.5923" cy="325.1452" fx="-363.5923" fy="325.1452" r=".2308" gradientTransform="translate(24642.4107 21967.0491) scale(67.5271 -67.5271)" gradientUnits="userSpaceOnUse">
      <stop offset="0" stop-color="#f8e7c1"/>
      <stop offset=".03" stop-color="#f8e7c1"/>
      <stop offset=".0309" stop-color="#f7e6c0"/>
      <stop offset=".0765" stop-color="#f1d392"/>
      <stop offset=".1225" stop-color="#ecc26d"/>
      <stop offset=".168" stop-color="#e8b650"/>
      <stop offset=".213" stop-color="#e5ad3b"/>
      <stop offset=".2573" stop-color="#e3a72f"/>
      <stop offset=".3" stop-color="#e3a62b"/>
      <stop offset="1" stop-color="#d37229"/>
    </radialGradient>
  </defs>
  <!-- Generator: Adobe Illustrator 28.7.1, SVG Export Plug-In . SVG Version: 1.2.0 Build 142)  -->
  <g>
    <g id="Calque_3">
      <g>
        <g clip-path="url(#clippath)">
          <rect x="16.7254" y="7.0864" width="23.5387" height="23.5386" fill="url(#radial-gradient)"/>
        </g>
        <path d="M21.7993,23.3514l3.0246-8.4875s.2584-.851.929-.851.922.851.922.851l1.8129,5.0827,1.7997-5.0827s.2387-.851.9353-.851c.696,0,.9226.851.9226.851l2.9922,8.4875h-1.78l-2.1348-6.0364-1.9159,5.367s-.2034.7735-.7937.7735c-.6769,0-.8578-.7735-.8578-.7735l-1.9025-5.3924-2.1476,6.0618h-1.806Z" fill="#fff"/>
        <g clip-path="url(#clippath-1)">
          <rect x="44.923" y="7.0864" width="23.538" height="23.5386" fill="url(#radial-gradient-2)"/>
        </g>
        <path d="M50.0038,23.3514l3.0246-8.4875s.2589-.851.9295-.851.922.851.922.851l1.8124,5.0827,1.8002-5.0827s.2382-.851.9342-.851c.6971,0,.9226.851.9226.851l2.9934,8.4875h-1.7805l-2.1355-6.0364-1.9158,5.367s-.2024.7735-.7921.7735c-.678,0-.8584-.7735-.8584-.7735l-1.9025-5.3924-2.1481,6.0618h-1.806Z" fill="#fff"/>
        <g clip-path="url(#clippath-2)">
          <rect x="73.1216" y="7.0864" width="23.5388" height="23.5386" fill="url(#radial-gradient-3)"/>
        </g>
        <g>
          <path d="M90.1696,23.6209l-1.3123-2.8512c.3711-.178.7306-.3804,1.0729-.607l-.7111-1.2729c-.3074.2092-.6324.3989-.9712.5631l-2.4753-5.3636c-.1642-.3423-.392-.6752-.8822-.6752h-.0196c-.4903,0-.7192.3329-.8833.6752-.1019.2174-4.286,9.5316-4.286,9.5316h2.0001l.9921-2.2153c.7052.1757,1.4406.2706,2.2002.2706.7734,0,1.5238-.1017,2.2407-.2834l1.0139,2.2281h2.0211ZM84.8939,20.2217c-.5481,0-1.0811-.0625-1.5956-.1723l1.5921-3.576,1.6302,3.5714c-.5248.1144-1.0671.1769-1.6267.1769" fill="#fff"/>
          <polygon points="23.433 35.2844 27.7566 35.2844 27.7566 36.2013 24.4573 36.2013 24.4573 37.7182 27.3819 37.7182 27.3819 38.6338 24.4573 38.6338 24.4573 40.2005 27.7981 40.2005 27.7981 41.1174 23.433 41.1174 23.433 35.2844" fill="#344f98"/>
          <path d="M29.5967,36.7169h1.0075v.6752c.2839-.4081.692-.7665,1.3752-.7665.991,0,1.5661.6671,1.5661,1.6834v2.8084h-1.0076v-2.4997c0-.6833-.3416-1.0764-.9417-1.0764-.5833,0-.992.4093-.992,1.0925v2.4836h-1.0075v-4.4005Z" fill="#344f98"/>
          <path d="M35.6689,39.9011v-2.3171h-.5585v-.8671h.5585v-1.207h1.0075v1.207h1.1834v.8671h-1.1834v2.1575c0,.3919.2001.5503.5418.5503.2254,0,.4248-.0497.6249-.1502v.8243c-.2498.1422-.525.2255-.9082.2255-.7412,0-1.266-.3249-1.266-1.2903" fill="#344f98"/>
          <path d="M39.5831,36.7169h1.0082v.992c.2746-.6579.7833-1.1076,1.5586-1.0752v1.0672h-.0584c-.8833,0-1.5002.5746-1.5002,1.7412v1.6753h-1.0082v-4.4005Z" fill="#344f98"/>
          <path d="M43.3314,38.9344v-.0173c0-1.2579.892-2.2915,2.1499-2.2915,1.3997,0,2.1078,1.0996,2.1078,2.3667,0,.0913-.0081.1838-.0167.2832h-3.2327c.1086.7157.6168,1.1169,1.2665,1.1169.4915,0,.8412-.1838,1.1909-.526l.592.526c-.4163.4995-.9914.8244-1.7996.8244-1.2747,0-2.2581-.925-2.2581-2.2824M46.589,38.6085c-.0665-.6487-.4492-1.1574-1.1157-1.1574-.6175,0-1.0504.474-1.1417,1.1574h2.2574Z" fill="#344f98"/>
          <path d="M49.3043,36.7169h1.0082v.7342c.3242-.459.7827-.8255,1.4995-.8255,1.0331,0,2.0407.8162,2.0407,2.2835v.0161c0,1.458-.9995,2.2834-2.0407,2.2834-.7335,0-1.1914-.3676-1.4995-.7757v2.0164h-1.0082v-5.7324ZM52.8283,38.9252v-.0161c0-.8498-.5751-1.4083-1.2585-1.4083s-1.2828.5665-1.2828,1.4083v.0161c0,.8418.5996,1.4083,1.2828,1.4083.692,0,1.2585-.5423,1.2585-1.4083" fill="#344f98"/>
          <path d="M55.5928,36.7169h1.0081v.992c.2753-.6579.7828-1.1076,1.5585-1.0752v1.0672h-.0589c-.8834,0-1.4996.5746-1.4996,1.7412v1.6753h-1.0081v-4.4005Z" fill="#344f98"/>
          <path d="M59.3411,38.9344v-.0173c0-1.2579.8914-2.2915,2.1493-2.2915,1.4001,0,2.1078,1.0996,2.1078,2.3667,0,.0913-.0081.1838-.0162.2832h-3.2327c.1086.7157.6163,1.1169,1.266,1.1169.4925,0,.8417-.1838,1.1908-.526l.592.526c-.4162.4995-.9908.8244-1.799.8244-1.2752,0-2.258-.925-2.258-2.2824M62.5992,38.6085c-.067-.6487-.4509-1.1574-1.1168-1.1574-.6163,0-1.0498.474-1.1412,1.1574h2.258Z" fill="#344f98"/>
          <path d="M65.3127,36.7169h1.0095v.6752c.2821-.4081.6902-.7665,1.3734-.7665.992,0,1.5667.6671,1.5667,1.6834v2.8084h-1.0082v-2.4997c0-.6833-.3411-1.0764-.9411-1.0764-.5827,0-.9908.4093-.9908,1.0925v2.4836h-1.0095v-4.4005Z" fill="#344f98"/>
          <path d="M70.9364,38.9344v-.0173c0-1.2579.8915-2.2915,2.1482-2.2915,1.4002,0,2.1089,1.0996,2.1089,2.3667,0,.0913-.0093.1838-.0173.2832h-3.2327c.1086.7157.6162,1.1169,1.2661,1.1169.4925,0,.8428-.1838,1.1919-.526l.592.526c-.4163.4995-.992.8244-1.8002.8244-1.2741,0-2.2569-.925-2.2569-2.2824M74.1934,38.6085c-.067-.6487-.4498-1.1574-1.1157-1.1574-.6175,0-1.0498.474-1.1423,1.1574h2.258Z" fill="#344f98"/>
          <path d="M76.8584,39.5172v-2.8003h1.0083v2.5008c0,.6834.3399,1.0661.9411,1.0661.5827,0,.9908-.4001.9908-1.0833v-2.4836h1.0163v4.4005h-1.0163v-.6845c-.2821.4174-.6902.7747-1.3736.7747-.992,0-1.5666-.666-1.5666-1.6904" fill="#344f98"/>
          <path d="M82.7711,36.7169h1.0094v.992c.274-.6579.7827-1.1076,1.5573-1.0752v1.0672h-.0577c-.8834,0-1.4996.5746-1.4996,1.7412v1.6753h-1.0094v-4.4005Z" fill="#344f98"/>
          <path d="M86.553,40.5416l.4509-.6834c.4833.3585.992.5412,1.4406.5412.4335,0,.6834-.1827.6834-.474v-.0174c0-.3411-.466-.4579-.9828-.6151-.6498-.1838-1.3747-.4509-1.3747-1.2914v-.0174c0-.8336.6913-1.3412,1.5654-1.3412.5504,0,1.1504.1908,1.6164.4995l-.399.7168c-.4253-.2589-.8751-.4174-1.2417-.4174-.3919,0-.6162.1839-.6162.4336v.0174c0,.3237.4752.4578.9908.6243.6417.2001,1.3666.4913,1.3666,1.2822v.0174c0,.9249-.7157,1.3827-1.6325,1.3827-.6255,0-1.3169-.2242-1.8672-.6578" fill="#344f98"/>
          <path d="M23.0907,47.3145v-.0174c0-1.4579.9914-2.2823,2.0414-2.2823.7249,0,1.1833.3585,1.5.7747v-2.3656h1.0076v6.0816h-1.0076v-.7331c-.3249.4579-.7839.8244-1.5.8244-1.0331,0-2.0414-.8244-2.0414-2.2823M26.6483,47.3145v-.0174c0-.8497-.5994-1.4082-1.2746-1.4082-.6914,0-1.2661.533-1.2661,1.4082v.0174c0,.8498.5827,1.4082,1.2661,1.4082.6752,0,1.2746-.5665,1.2746-1.4082" fill="#344f98"/>
          <path d="M29.8383,45.5976c.5081-.0914.7498-.3492.7161-.7828h-.4329v-1.1411h1.1077v.9746c0,.9238-.4418,1.3158-1.2828,1.3828l-.1081-.4335Z" fill="#344f98"/>
          <path d="M34.9781,43.6309h.9491l2.5662,5.8746h-1.0827l-.5915-1.4083h-2.7579l-.6002,1.4083h-1.0498l2.5668-5.8746ZM36.444,47.1885l-1.0081-2.3321-1.0001,2.3321h2.0082Z" fill="#344f98"/>
          <path d="M39.8468,48.9297l.4502-.6833c.4833.3595.9914.5422,1.4406.5422.4336,0,.684-.1827.684-.4752v-.0162c0-.3422-.4672-.4578-.9834-.6162-.6497-.1838-1.3753-.4509-1.3753-1.2915v-.0173c0-.8324.6925-1.3412,1.5666-1.3412.5504,0,1.1499.192,1.617.4995l-.4.7168c-.4249-.2578-.8747-.4162-1.2412-.4162-.3919,0-.6175.1827-.6175.4336v.0162c0,.3249.4753.4578.9915.6255.6416.1988,1.3666.4902,1.3666,1.2822v.0173c0,.9238-.7162,1.3816-1.6331,1.3816-.6243,0-1.3163-.2243-1.866-.6578" fill="#344f98"/>
          <path d="M45.2282,48.9297l.4498-.6833c.4833.3595.9914.5422,1.4411.5422.4336,0,.6833-.1827.6833-.4752v-.0162c0-.3422-.4665-.4578-.9834-.6162-.6491-.1838-1.374-.4509-1.374-1.2915v-.0173c0-.8324.6914-1.3412,1.566-1.3412.5498,0,1.1498.192,1.6164.4995l-.3995.7168c-.4255-.2578-.8753-.4162-1.2418-.4162-.3913,0-.6168.1827-.6168.4336v.0162c0,.3249.4752.4578.9914.6255.6417.1988,1.3666.4902,1.3666,1.2822v.0173c0,.9238-.7162,1.3816-1.633,1.3816-.6244,0-1.3164-.2243-1.8661-.6578" fill="#344f98"/>
          <path d="M51.001,47.9053v-2.7991h1.0082v2.4997c0,.6832.3416,1.066.9417,1.066.5833,0,.9908-.4001.9908-1.0834v-2.4823h1.0169v4.3993h-1.0169v-.6833c-.2832.4162-.6913.7746-1.3747.7746-.9914,0-1.566-.6671-1.566-1.6915" fill="#344f98"/>
          <path d="M57.5074,45.1062h1.007v.992c.2752-.6579.784-1.1088,1.5586-1.0753v1.0672h-.0591c-.8832,0-1.4995.5746-1.4995,1.74v1.6754h-1.007v-4.3993Z" fill="#344f98"/>
          <path d="M61.739,48.2394v-.0173c0-.9492.7412-1.4163,1.8152-1.4163.4926,0,.8417.0751,1.184.1826v-.1075c0-.6255-.3839-.9573-1.0915-.9573-.4913,0-.8579.1075-1.2591.274l-.2659-.792c.4833-.2162.9585-.3584,1.658-.3584.6591,0,1.1504.1758,1.458.4926.3248.3167.4751.7827.4751,1.3585v2.6072h-.9828v-.5492c-.3006.3572-.7584.6405-1.4336.6405-.8244,0-1.5574-.4752-1.5574-1.3574M64.7544,47.9226v-.2994c-.2579-.1006-.6001-.1757-.999-.1757-.6497,0-1.0336.2751-1.0336.733v.0162c0,.4254.3757.6671.8579.6671.667,0,1.1747-.3827,1.1747-.9412" fill="#344f98"/>
          <path d="M68.2114,45.1062h1.007v.6752c.2832-.4081.6925-.7654,1.3759-.7654.9908,0,1.5653.666,1.5653,1.6811v2.8084h-1.0081v-2.4997c0-.6833-.3411-1.0741-.9411-1.0741-.5839,0-.992.4081-.992,1.0914v2.4824h-1.007v-4.3993Z" fill="#344f98"/>
          <path d="M74.4258,47.3307v-.0162c0-1.251.9666-2.2997,2.2904-2.2997.8244,0,1.3412.3087,1.7585.7573l-.6335.6753c-.3088-.3249-.6336-.5504-1.1331-.5504-.733,0-1.2752.6336-1.2752,1.4001v.0174c0,.7827.5422,1.4082,1.3157,1.4082.4764,0,.8267-.2173,1.1423-.5422l.6093.6c-.4336.4833-.9423.8244-1.8014.8244-1.3064,0-2.273-1.0244-2.273-2.2742" fill="#344f98"/>
          <path d="M80.3478,47.3226v-.0174c0-1.2567.8926-2.2904,2.1493-2.2904,1.4001,0,2.1078,1.0996,2.1078,2.3667,0,.0914-.0082.1827-.0162.2822h-3.2328c.1087.7168.6163,1.1168,1.2661,1.1168.4925,0,.8417-.1826,1.1908-.526l.5932.526c-.4175.4995-.992.8255-1.8014.8255-1.2741,0-2.2568-.9261-2.2568-2.2834M83.6059,46.9977c-.067-.6498-.451-1.1585-1.1169-1.1585-.6173,0-1.0498.4752-1.1411,1.1585h2.258Z" fill="#344f98"/>
          <path d="M86.553,48.9297l.4509-.6833c.4833.3595.992.5422,1.4406.5422.4335,0,.6834-.1827.6834-.4752v-.0162c0-.3422-.466-.4578-.9828-.6162-.6498-.1838-1.3747-.4509-1.3747-1.2915v-.0173c0-.8324.6913-1.3412,1.5654-1.3412.5504,0,1.1504.192,1.6164.4995l-.399.7168c-.4253-.2578-.8751-.4162-1.2417-.4162-.3919,0-.6162.1827-.6162.4336v.0162c0,.3249.4752.4578.9908.6255.6417.1988,1.3666.4902,1.3666,1.2822v.0173c0,.9238-.7157,1.3816-1.6325,1.3816-.6255,0-1.3169-.2243-1.8672-.6578" fill="#344f98"/>
        </g>
      </g>
    </g>
  </g>
</svg>