<?xml version="1.0" encoding="utf-8"?>
<!-- Generator: Adobe Illustrator 28.3.0, SVG Export Plug-In . SVG Version: 6.00 Build 0)  -->
<svg version="1.1" id="Calque_1" xmlns="http://www.w3.org/2000/svg" xmlns:xlink="http://www.w3.org/1999/xlink" width="140px" height="140px"
	 viewBox="0 0 217.5 200" style="enable-background:new 0 0 217.5 200;" xml:space="preserve">
<style type="text/css">
	.st0{fill:#104787;}
	.st1{fill:#E3051B;}
	.st2{clip-path:url(#SVGID_00000114031593602894418500000000290509726347568267_);fill:#E3051B;}
	.st3{fill:#FFFFFF;}
	.st4{fill:none;}
	.st5{fill-rule:evenodd;clip-rule:evenodd;fill:#E3051B;}
	.st6{fill-rule:evenodd;clip-rule:evenodd;fill:#104787;}
	.st7{fill:#45AB34;}
</style>
<g>
	<path class="st0" d="M43.58,107.55c43.52,5.77,85.88,5.77,129.41,0c-7.46-19.34-14.44-38.83-20.94-58.52
		c-29.51,3.02-58.02,3.02-87.53,0.01C58.03,68.71,51.05,88.21,43.58,107.55 M182.17,112.09c-49.67,7.44-98.09,7.44-147.76,0
		c9.35-22.9,18-46.03,25.96-69.44c32.39,3.66,63.45,3.66,95.85,0C164.17,66.07,172.82,89.19,182.17,112.09"/>
	<path class="st1" d="M16.99,97.22l12.21,1.51l3.86-9.29l-12.38-0.58c-0.3,0.01-0.58,0.06-0.97,0.42
		C18.27,90.62,17.38,94.13,16.99,97.22 M33.03,105.32l-22.39-2.78l0.06-2.74c0.03-1.09,0.38-10.74,4.83-14.93
		c1.51-1.42,3.42-2.17,5.38-2.06l21.03,0.98L33.03,105.32z"/>
	<path class="st1" d="M184.45,89.88l3.86,9.3l12.21-1.51c-0.39-3.09-1.29-6.61-2.7-7.94c-0.4-0.36-0.75-0.45-1.01-0.42L184.45,89.88
		z M184.47,105.77l-8.9-21.54l20.99-0.98c1.9-0.06,3.9,0.63,5.42,2.06c4.44,4.18,4.79,13.84,4.82,14.93l0.06,2.74L184.47,105.77z"/>
	<path class="st1" d="M62.76,144.31c-0.26,0-0.53,0.02-0.8,0.05c-3.57,0.44-6.11,3.7-5.68,7.26c0.41,3.3,3.22,5.73,6.47,5.73
		c0.26,0,0.53-0.02,0.8-0.05c3.57-0.44,6.11-3.7,5.67-7.26C68.82,146.74,66,144.31,62.76,144.31 M62.76,149.63
		c0.52,0,1.1,0.39,1.18,1.06c0.08,0.66-0.38,1.26-1.19,1.34c-0.52,0-1.1-0.39-1.18-1.06c-0.08-0.66,0.38-1.26,1.04-1.34
		L62.76,149.63z"/>
	<path class="st1" d="M154.76,144.31c-0.26,0-0.53,0.02-0.8,0.05c-3.57,0.44-6.11,3.7-5.68,7.26c0.41,3.3,3.22,5.73,6.47,5.73
		c0.26,0,0.53-0.02,0.8-0.05c3.57-0.44,6.11-3.7,5.67-7.26C160.82,146.74,158,144.31,154.76,144.31 M154.76,149.63
		c0.52,0,1.1,0.39,1.18,1.06c0.08,0.66-0.38,1.26-1.19,1.34c-0.52,0-1.1-0.39-1.18-1.06c-0.08-0.66,0.38-1.26,1.04-1.34
		L154.76,149.63z"/>
	<path class="st0" d="M137.32,137.73c-0.02,0.07-0.08,0.13-0.16,0.13H81.85c-0.07,0-0.14-0.06-0.16-0.13l-1.35-5.41
		c-0.01-0.02-0.02-0.08,0.03-0.15c0.05-0.06,0.1-0.06,0.13-0.06h58.02c0.02,0,0.08,0,0.14,0.06c0.05,0.07,0.03,0.13,0.02,0.15
		L137.32,137.73z M138.52,127.03H80.5c-1.62,0-3.13,0.74-4.13,2.02c-1,1.28-1.35,2.92-0.96,4.5l1.36,5.42
		c0.58,2.34,2.67,3.97,5.08,3.97h55.32c2.41,0,4.5-1.63,5.09-3.97l1.35-5.42c0.39-1.58,0.05-3.22-0.95-4.5
		C141.64,127.77,140.14,127.03,138.52,127.03"/>
	<path class="st1" d="M171.52,124.98c-4.04,0-17.07,8.42-17.44,11.26c0.93,0.77,5.97,1.23,14.97,1.02c0.98-0.02,1.82-0.04,2.47-0.04
		c3.21,0,5.82-2.74,5.82-6.12C177.34,127.74,174.73,124.98,171.52,124.98 M164.64,142.85c-6.4,0-11.94-0.53-14.52-3.05
		c-1.02-0.99-1.55-2.22-1.55-3.58c0-7.24,17.79-16.75,22.95-16.75c6.25,0,11.34,5.22,11.34,11.64c0,6.41-5.09,11.62-11.34,11.62
		l-2.34,0.05C167.64,142.82,166.11,142.85,164.64,142.85 M45.98,124.98c-3.21,0-5.82,2.75-5.82,6.13c0,3.38,2.61,6.12,5.82,6.12
		c0.65,0,1.49,0.02,2.46,0.04c11.22,0.3,14.38-0.62,15.1-1.42C63.06,133.41,50.01,124.98,45.98,124.98 M52.86,142.85
		c-1.48,0-3-0.03-4.54-0.06l-2.34-0.05c-6.25,0-11.33-5.22-11.33-11.62c0-6.42,5.08-11.64,11.33-11.64
		c5.16,0,22.95,9.51,22.95,16.75c0,1.35-0.53,2.58-1.54,3.58C64.8,142.32,59.26,142.85,52.86,142.85"/>
</g>
</svg>
