<?xml version="1.0" encoding="utf-8"?>
<!-- Generator: Adobe Illustrator 28.3.0, SVG Export Plug-In . SVG Version: 6.00 Build 0)  -->
<svg version="1.1" id="Calque_1" xmlns="http://www.w3.org/2000/svg" xmlns:xlink="http://www.w3.org/1999/xlink" width="140px" height="140px"
	 viewBox="0 0 217.5 200" style="enable-background:new 0 0 217.5 200;" xml:space="preserve">
<style type="text/css">
	.st0{fill:#104787;}
	.st1{fill:#E3051B;}
	.st2{clip-path:url(#SVGID_00000034803786008628531200000002873827577418967961_);fill:#E3051B;}
	.st3{fill:#FFFFFF;}
	.st4{fill:none;}
	.st5{fill-rule:evenodd;clip-rule:evenodd;fill:#E3051B;}
	.st6{fill-rule:evenodd;clip-rule:evenodd;fill:#104787;}
	.st7{fill:#45AB34;}
	.st8{fill:#E20613;}
</style>
<g>
	<path class="st0" d="M109.99,41.07l-11.77,4.47H78.26l0.57-4.47H109.99 M145.02,34.65L145.02,34.65L145.02,34.65z M145.02,34.65
		H73.19l-2.22,17.31h28.43L145.02,34.65L145.02,34.65z"/>
	<path class="st0" d="M156.09,51.32c1.56,5.9,3.85,16.03,5.24,28.75c1.32,12.02,1.59,23.99,0.82,35.57
		c-0.82,12.26-2.84,24.12-5.99,35.33c-16.9-4.4-34.75-9.05-43.07-11.22V62.54L156.09,51.32 M160.51,43.53l-53.85,14.06v87.13
		c0,0,29.16,7.6,53.85,14.02C179.61,99.72,160.51,43.53,160.51,43.53L160.51,43.53z"/>
	<path class="st0" d="M100.22,156.94l11.71,4.43H78.83l-0.57-4.43H100.22 M101.39,150.52H70.96l2.22,17.27H147L101.39,150.52
		L101.39,150.52z"/>
</g>
<path class="st8" d="M99.84,144.84H45.65V57.6h54.19V144.84z M51.48,139.01h42.53V63.44H51.48V139.01z"/>
</svg>
